<svg width="449" height="391" viewBox="0 0 449 391" fill="none" xmlns="http://www.w3.org/2000/svg">
<path d="M221.496 390.952C220.097 390.984 218.693 391 217.283 391C183.798 391 141.683 373.119 103.462 348.365C100.3 346.318 97.1664 344.222 94.0605 342.079L96.7845 325.507L179.248 314.561L220.635 346.201L221.496 390.952Z" fill="#2F2E41"/>
<path d="M225.465 95.0278H213.714C213.35 95.028 213.001 95.1726 212.744 95.4299C212.487 95.6872 212.342 96.0361 212.342 96.4V108.154C212.342 108.334 212.378 108.512 212.447 108.678C212.516 108.844 212.617 108.995 212.744 109.122C212.872 109.249 213.023 109.349 213.19 109.418C213.356 109.486 213.534 109.521 213.714 109.521H225.465C225.828 109.521 226.177 109.377 226.434 109.121C226.691 108.865 226.837 108.517 226.838 108.154V96.4C226.837 96.0364 226.692 95.688 226.435 95.4309C226.178 95.1738 225.829 95.0289 225.465 95.0278V95.0278Z" fill="white"/>
<path d="M225.465 115.057H213.714C213.35 115.058 213.001 115.202 212.744 115.459C212.487 115.717 212.342 116.066 212.342 116.43V128.183C212.342 128.363 212.378 128.541 212.447 128.708C212.516 128.874 212.617 129.025 212.744 129.151C212.872 129.278 213.023 129.379 213.19 129.447C213.356 129.516 213.534 129.551 213.714 129.55H225.465C225.828 129.551 226.177 129.407 226.434 129.151C226.691 128.894 226.837 128.547 226.838 128.183V116.43C226.837 116.066 226.692 115.718 226.435 115.46C226.178 115.203 225.829 115.058 225.465 115.057Z" fill="#E6E6E6"/>
<path d="M225.465 135.087H213.714C213.35 135.087 213.001 135.232 212.744 135.489C212.487 135.746 212.342 136.095 212.342 136.459V148.208C212.341 148.388 212.377 148.567 212.446 148.733C212.514 148.9 212.615 149.051 212.743 149.179C212.87 149.306 213.022 149.407 213.189 149.476C213.355 149.545 213.534 149.58 213.714 149.58H225.465C225.829 149.58 226.178 149.435 226.436 149.178C226.693 148.921 226.838 148.572 226.838 148.208V136.459C226.837 136.096 226.692 135.747 226.435 135.49C226.178 135.233 225.829 135.088 225.465 135.087V135.087Z" fill="#E6E6E6"/>
<path d="M226.817 156.246C226.758 155.93 226.591 155.644 226.344 155.438C226.098 155.232 225.787 155.118 225.465 155.116H213.714C213.35 155.116 213.001 155.261 212.744 155.518C212.487 155.776 212.342 156.125 212.342 156.489V168.237C212.341 168.417 212.377 168.596 212.446 168.763C212.514 168.929 212.615 169.081 212.743 169.208C212.87 169.336 213.022 169.437 213.189 169.506C213.355 169.574 213.534 169.61 213.714 169.609H225.465C225.829 169.609 226.178 169.464 226.436 169.207C226.693 168.95 226.838 168.601 226.838 168.237V156.489C226.839 156.407 226.832 156.326 226.817 156.246V156.246Z" fill="#E6E6E6"/>
<path d="M225.999 175.251C225.829 175.181 225.648 175.146 225.465 175.146H213.714C213.534 175.145 213.355 175.181 213.189 175.249C213.022 175.318 212.87 175.419 212.743 175.547C212.615 175.674 212.514 175.826 212.446 175.992C212.377 176.159 212.341 176.338 212.342 176.518V188.267C212.341 188.447 212.376 188.626 212.445 188.793C212.513 188.959 212.614 189.111 212.742 189.239C212.87 189.366 213.021 189.467 213.188 189.536C213.355 189.605 213.534 189.64 213.714 189.639H225.465C225.829 189.639 226.178 189.494 226.436 189.237C226.693 188.979 226.838 188.63 226.838 188.267V176.518C226.837 176.248 226.757 175.984 226.608 175.759C226.459 175.534 226.247 175.357 225.999 175.251Z" fill="#E6E6E6"/>
<path d="M250.151 95.0278H238.4C238.036 95.028 237.687 95.1726 237.43 95.4299C237.172 95.6872 237.028 96.0361 237.027 96.4V108.154C237.028 108.334 237.063 108.512 237.132 108.678C237.201 108.844 237.303 108.995 237.43 109.122C237.558 109.249 237.709 109.349 237.875 109.418C238.042 109.486 238.22 109.521 238.4 109.521H250.151C250.514 109.521 250.862 109.377 251.12 109.121C251.377 108.865 251.522 108.517 251.523 108.154V96.4C251.522 96.0364 251.377 95.688 251.12 95.4309C250.863 95.1738 250.515 95.0289 250.151 95.0278V95.0278Z" fill="#E6E6E6"/>
<path d="M250.151 115.057H238.4C238.036 115.058 237.687 115.202 237.429 115.459C237.172 115.717 237.027 116.066 237.027 116.43V128.183C237.028 128.363 237.063 128.541 237.132 128.708C237.201 128.874 237.303 129.025 237.43 129.151C237.558 129.278 237.709 129.379 237.875 129.447C238.042 129.516 238.22 129.551 238.4 129.55H250.151C250.514 129.551 250.862 129.407 251.12 129.151C251.377 128.894 251.522 128.547 251.523 128.183V116.43C251.522 116.066 251.377 115.718 251.12 115.46C250.863 115.203 250.515 115.058 250.151 115.057Z" fill="#04080B"/>
<path d="M250.151 135.087H238.4C238.036 135.087 237.687 135.232 237.429 135.489C237.172 135.746 237.027 136.095 237.027 136.459V148.208C237.027 148.388 237.062 148.567 237.131 148.733C237.2 148.9 237.301 149.051 237.429 149.179C237.556 149.306 237.707 149.407 237.874 149.476C238.041 149.545 238.219 149.58 238.4 149.58H250.151C250.515 149.58 250.864 149.435 251.121 149.178C251.379 148.921 251.523 148.572 251.523 148.208V136.459C251.522 136.096 251.377 135.747 251.12 135.49C250.863 135.233 250.515 135.088 250.151 135.087V135.087Z" fill="#04080B"/>
<path d="M250.151 155.116H238.4C238.112 155.116 237.832 155.207 237.599 155.376C237.365 155.545 237.191 155.782 237.101 156.056C237.052 156.195 237.027 156.341 237.027 156.488V168.237C237.027 168.417 237.062 168.596 237.131 168.763C237.2 168.929 237.301 169.081 237.428 169.208C237.556 169.336 237.707 169.437 237.874 169.506C238.041 169.574 238.219 169.61 238.4 169.609H250.151C250.515 169.609 250.864 169.464 251.121 169.207C251.379 168.95 251.523 168.601 251.523 168.237V156.488C251.522 156.125 251.377 155.776 251.12 155.519C250.863 155.262 250.515 155.117 250.151 155.116V155.116Z" fill="#04080B"/>
<path d="M250.151 175.146H238.4C238.219 175.145 238.041 175.181 237.874 175.249C237.707 175.318 237.556 175.419 237.429 175.547C237.301 175.674 237.2 175.826 237.131 175.992C237.062 176.159 237.027 176.338 237.027 176.518V188.267C237.027 188.447 237.062 188.625 237.131 188.792C237.2 188.959 237.301 189.11 237.429 189.238C237.556 189.365 237.707 189.466 237.874 189.535C238.041 189.604 238.219 189.639 238.4 189.639H250.151C250.515 189.639 250.864 189.494 251.121 189.237C251.379 188.979 251.523 188.63 251.523 188.267V176.518C251.523 176.154 251.379 175.805 251.121 175.548C250.864 175.291 250.515 175.146 250.151 175.146V175.146Z" fill="#E6E6E6"/>
<path d="M274.834 95.0278H263.083C262.719 95.028 262.37 95.1726 262.113 95.4299C261.856 95.6872 261.711 96.0361 261.711 96.4V108.154C261.711 108.334 261.747 108.512 261.816 108.678C261.885 108.844 261.986 108.995 262.114 109.122C262.241 109.249 262.392 109.349 262.559 109.418C262.725 109.486 262.903 109.521 263.083 109.521H274.834C275.198 109.521 275.546 109.377 275.803 109.121C276.061 108.865 276.206 108.517 276.207 108.154V96.4C276.206 96.0364 276.061 95.688 275.804 95.4309C275.547 95.1738 275.198 95.0289 274.834 95.0278V95.0278Z" fill="#04080B"/>
<path d="M274.834 115.057H263.083C262.719 115.058 262.37 115.202 262.113 115.459C261.856 115.717 261.711 116.066 261.711 116.43V128.183C261.711 128.363 261.747 128.541 261.816 128.708C261.885 128.874 261.986 129.025 262.114 129.151C262.241 129.278 262.392 129.379 262.559 129.447C262.725 129.516 262.903 129.551 263.083 129.55H274.834C275.198 129.551 275.546 129.407 275.803 129.151C276.061 128.894 276.206 128.547 276.207 128.183V116.43C276.206 116.066 276.061 115.718 275.804 115.46C275.547 115.203 275.198 115.058 274.834 115.057Z" fill="#04080B"/>
<path d="M274.834 135.087H263.083C262.719 135.087 262.37 135.232 262.113 135.489C261.856 135.746 261.711 136.095 261.711 136.459V148.208C261.711 148.388 261.746 148.567 261.815 148.733C261.884 148.9 261.985 149.051 262.112 149.179C262.24 149.306 262.391 149.407 262.558 149.476C262.724 149.545 262.903 149.58 263.083 149.58H274.834C275.198 149.58 275.547 149.435 275.805 149.178C276.062 148.921 276.207 148.572 276.207 148.208V136.459C276.206 136.096 276.061 135.747 275.804 135.49C275.547 135.233 275.198 135.088 274.834 135.087V135.087Z" fill="#E6E6E6"/>
<path d="M274.834 155.116H263.083C262.719 155.116 262.37 155.261 262.113 155.518C261.856 155.776 261.711 156.125 261.711 156.489V168.237C261.711 168.417 261.746 168.596 261.815 168.763C261.884 168.929 261.985 169.081 262.112 169.208C262.24 169.336 262.391 169.437 262.558 169.506C262.724 169.574 262.903 169.61 263.083 169.609H274.834C275.198 169.609 275.548 169.464 275.805 169.207C276.062 168.95 276.207 168.601 276.207 168.237V156.489C276.206 156.125 276.061 155.776 275.804 155.519C275.547 155.262 275.198 155.117 274.834 155.116V155.116Z" fill="#04080B"/>
<path d="M274.834 175.146H263.083C262.903 175.145 262.724 175.181 262.558 175.249C262.391 175.318 262.24 175.419 262.112 175.547C261.985 175.674 261.884 175.826 261.815 175.992C261.746 176.159 261.711 176.338 261.711 176.518V188.267C261.711 188.447 261.746 188.625 261.815 188.792C261.884 188.959 261.985 189.11 262.112 189.238C262.24 189.365 262.391 189.466 262.558 189.535C262.724 189.604 262.903 189.639 263.083 189.639H274.834C275.198 189.639 275.548 189.494 275.805 189.237C276.062 188.979 276.207 188.63 276.207 188.267V176.518C276.207 176.154 276.062 175.805 275.805 175.548C275.548 175.291 275.198 175.146 274.834 175.146V175.146Z" fill="#04080B"/>
<path d="M299.52 95.0278H287.769C287.405 95.028 287.056 95.1726 286.799 95.4299C286.541 95.6872 286.397 96.0361 286.396 96.4V108.154C286.397 108.334 286.432 108.512 286.501 108.678C286.571 108.844 286.672 108.995 286.799 109.122C286.927 109.249 287.078 109.349 287.244 109.418C287.411 109.486 287.589 109.521 287.769 109.521H299.52C299.883 109.521 300.232 109.377 300.489 109.121C300.746 108.865 300.891 108.517 300.893 108.154V96.4C300.892 96.0364 300.747 95.688 300.489 95.4309C300.232 95.1738 299.884 95.0289 299.52 95.0278V95.0278Z" fill="#04080B"/>
<path d="M299.52 115.057H287.769C287.405 115.058 287.056 115.202 286.799 115.459C286.541 115.717 286.397 116.066 286.396 116.43V128.183C286.397 128.363 286.432 128.541 286.501 128.708C286.571 128.874 286.672 129.025 286.799 129.151C286.927 129.278 287.078 129.379 287.244 129.447C287.411 129.516 287.589 129.551 287.769 129.55H299.52C299.883 129.551 300.232 129.407 300.489 129.151C300.746 128.894 300.891 128.547 300.893 128.183V116.43C300.892 116.066 300.747 115.718 300.489 115.46C300.232 115.203 299.884 115.058 299.52 115.057V115.057Z" fill="white"/>
<path d="M299.52 135.087H287.769C287.405 135.087 287.056 135.232 286.799 135.489C286.541 135.746 286.397 136.095 286.396 136.459V148.208C286.396 148.388 286.431 148.567 286.5 148.733C286.569 148.9 286.67 149.051 286.798 149.179C286.925 149.306 287.077 149.407 287.243 149.476C287.41 149.545 287.589 149.58 287.769 149.58H299.52C299.884 149.58 300.233 149.435 300.49 149.178C300.748 148.921 300.892 148.572 300.893 148.208V136.459C300.892 136.096 300.747 135.747 300.489 135.49C300.232 135.233 299.884 135.088 299.52 135.087V135.087Z" fill="white"/>
<path d="M299.52 155.116H287.769C287.405 155.116 287.056 155.261 286.799 155.518C286.541 155.776 286.397 156.125 286.396 156.489V168.237C286.396 168.417 286.431 168.596 286.5 168.763C286.569 168.929 286.67 169.081 286.798 169.208C286.925 169.336 287.077 169.437 287.243 169.506C287.41 169.574 287.589 169.61 287.769 169.609H299.52C299.884 169.609 300.233 169.464 300.49 169.207C300.748 168.95 300.892 168.601 300.893 168.237V156.489C300.892 156.125 300.747 155.776 300.489 155.519C300.232 155.262 299.884 155.117 299.52 155.116V155.116Z" fill="#E6E6E6"/>
<path d="M299.52 175.146H287.769C287.589 175.145 287.41 175.181 287.243 175.249C287.077 175.318 286.925 175.419 286.798 175.547C286.67 175.674 286.569 175.826 286.5 175.992C286.431 176.159 286.396 176.338 286.396 176.518V188.267C286.396 188.447 286.431 188.625 286.5 188.792C286.569 188.959 286.67 189.11 286.798 189.238C286.925 189.365 287.077 189.466 287.243 189.535C287.41 189.604 287.589 189.639 287.769 189.639H299.52C299.884 189.639 300.233 189.494 300.49 189.237C300.748 188.979 300.892 188.63 300.893 188.267V176.518C300.892 176.154 300.748 175.805 300.49 175.548C300.233 175.291 299.884 175.146 299.52 175.146V175.146Z" fill="#04080B"/>
<path d="M324.204 95.0278H312.447C312.084 95.0291 311.736 95.1742 311.48 95.4314C311.224 95.6886 311.08 96.0369 311.08 96.4V108.154C311.08 108.516 311.224 108.864 311.481 109.12C311.737 109.377 312.085 109.521 312.447 109.521H324.204C324.567 109.521 324.915 109.377 325.173 109.121C325.43 108.865 325.575 108.517 325.576 108.154V96.4C325.575 96.0364 325.43 95.688 325.173 95.4309C324.916 95.1738 324.567 95.0289 324.204 95.0278Z" fill="white"/>
<path d="M324.204 115.057H312.447C312.084 115.059 311.736 115.204 311.48 115.461C311.224 115.718 311.08 116.067 311.08 116.43V128.183C311.08 128.546 311.224 128.894 311.481 129.15C311.737 129.406 312.085 129.55 312.447 129.55H324.204C324.567 129.551 324.915 129.407 325.173 129.151C325.43 128.894 325.575 128.546 325.576 128.183V116.43C325.575 116.066 325.43 115.718 325.173 115.46C324.916 115.203 324.567 115.058 324.204 115.057V115.057Z" fill="white"/>
<path d="M324.204 135.087H312.447C312.084 135.088 311.736 135.233 311.48 135.491C311.224 135.748 311.08 136.096 311.08 136.459V148.208C311.08 148.388 311.115 148.566 311.183 148.732C311.252 148.899 311.352 149.05 311.479 149.177C311.606 149.305 311.757 149.406 311.923 149.475C312.089 149.544 312.267 149.58 312.447 149.58H324.204C324.568 149.58 324.917 149.435 325.174 149.178C325.431 148.921 325.576 148.572 325.576 148.208V136.459C325.575 136.096 325.43 135.747 325.173 135.49C324.916 135.233 324.567 135.088 324.204 135.087V135.087Z" fill="white"/>
<path d="M324.204 155.116H312.447C312.084 155.118 311.736 155.263 311.48 155.52C311.224 155.777 311.08 156.125 311.08 156.489V168.237C311.08 168.417 311.115 168.595 311.183 168.762C311.251 168.928 311.352 169.079 311.479 169.207C311.606 169.334 311.757 169.435 311.923 169.504C312.089 169.573 312.267 169.609 312.447 169.609H324.204C324.568 169.609 324.917 169.465 325.174 169.207C325.431 168.95 325.576 168.601 325.576 168.237V156.489C325.575 156.125 325.43 155.776 325.173 155.519C324.916 155.262 324.567 155.117 324.204 155.116V155.116Z" fill="#04080B"/>
<path d="M324.204 175.146H312.447C312.267 175.146 312.089 175.182 311.923 175.251C311.757 175.32 311.606 175.421 311.479 175.548C311.352 175.676 311.251 175.827 311.183 175.993C311.115 176.16 311.08 176.338 311.08 176.518V188.267C311.08 188.446 311.115 188.625 311.183 188.791C311.251 188.957 311.352 189.109 311.479 189.236C311.606 189.364 311.757 189.465 311.923 189.534C312.089 189.603 312.267 189.639 312.447 189.639H324.204C324.568 189.639 324.917 189.494 325.174 189.237C325.431 188.979 325.576 188.63 325.576 188.267V176.518C325.576 176.154 325.431 175.805 325.174 175.548C324.917 175.291 324.568 175.146 324.204 175.146V175.146Z" fill="#E6E6E6"/>
<path d="M348.889 95.0278H337.133C336.77 95.0291 336.422 95.1742 336.166 95.4314C335.909 95.6886 335.766 96.0369 335.766 96.4V108.154C335.766 108.516 335.91 108.864 336.166 109.12C336.423 109.377 336.77 109.521 337.133 109.521H348.889C349.252 109.521 349.601 109.377 349.858 109.121C350.115 108.865 350.261 108.517 350.262 108.154V96.4C350.261 96.0364 350.116 95.688 349.859 95.4309C349.601 95.1738 349.253 95.0289 348.889 95.0278V95.0278Z" fill="white"/>
<path d="M348.889 115.057H337.133C336.77 115.059 336.422 115.204 336.166 115.461C335.909 115.718 335.765 116.067 335.766 116.43V128.183C335.766 128.546 335.91 128.894 336.166 129.15C336.423 129.406 336.77 129.55 337.133 129.55H348.889C349.252 129.551 349.601 129.407 349.858 129.15C350.115 128.894 350.261 128.546 350.262 128.183V116.43C350.261 116.066 350.116 115.718 349.859 115.46C349.601 115.203 349.253 115.058 348.889 115.057V115.057Z" fill="white"/>
<path d="M348.889 135.087H337.133C336.77 135.088 336.422 135.233 336.166 135.491C335.909 135.748 335.765 136.096 335.766 136.459V148.208C335.765 148.388 335.8 148.566 335.869 148.732C335.937 148.899 336.038 149.05 336.165 149.177C336.292 149.305 336.443 149.406 336.609 149.475C336.775 149.544 336.953 149.58 337.133 149.58H348.889C349.253 149.58 349.602 149.435 349.86 149.178C350.117 148.921 350.262 148.572 350.262 148.208V136.459C350.261 136.096 350.116 135.747 349.859 135.49C349.601 135.233 349.253 135.088 348.889 135.087V135.087Z" fill="#04080B"/>
<path d="M348.889 155.116H337.133C336.77 155.118 336.422 155.263 336.166 155.52C335.909 155.777 335.766 156.125 335.766 156.489V168.237C335.765 168.417 335.8 168.595 335.869 168.762C335.937 168.928 336.038 169.079 336.165 169.207C336.292 169.334 336.443 169.435 336.609 169.504C336.775 169.573 336.953 169.609 337.133 169.609H348.889C349.253 169.609 349.602 169.464 349.86 169.207C350.117 168.95 350.262 168.601 350.262 168.237V156.489C350.261 156.125 350.116 155.776 349.859 155.519C349.601 155.262 349.253 155.117 348.889 155.116V155.116Z" fill="#E6E6E6"/>
<path d="M348.889 175.146H337.133C336.953 175.146 336.775 175.182 336.609 175.251C336.443 175.32 336.292 175.421 336.165 175.548C336.038 175.676 335.937 175.827 335.869 175.993C335.8 176.16 335.765 176.338 335.766 176.518V188.267C335.765 188.446 335.8 188.625 335.869 188.791C335.937 188.957 336.038 189.109 336.165 189.236C336.292 189.364 336.443 189.465 336.609 189.534C336.775 189.603 336.953 189.639 337.133 189.639H348.889C349.253 189.639 349.602 189.494 349.86 189.237C350.117 188.979 350.262 188.63 350.262 188.267V176.518C350.262 176.154 350.117 175.805 349.86 175.548C349.602 175.291 349.253 175.146 348.889 175.146Z" fill="white"/>
<path d="M373.573 95.0278H361.816C361.453 95.0291 361.106 95.1742 360.849 95.4314C360.593 95.6886 360.449 96.0369 360.449 96.4V108.154C360.449 108.516 360.593 108.864 360.85 109.12C361.106 109.377 361.454 109.521 361.816 109.521H373.573C373.936 109.521 374.284 109.377 374.542 109.121C374.799 108.865 374.944 108.517 374.945 108.154V96.4C374.944 96.0364 374.799 95.688 374.542 95.4309C374.285 95.1738 373.937 95.0289 373.573 95.0278V95.0278Z" fill="#04080B"/>
<path d="M373.573 115.057H361.816C361.453 115.059 361.105 115.204 360.849 115.461C360.593 115.718 360.449 116.067 360.449 116.43V128.183C360.449 128.546 360.593 128.894 360.85 129.15C361.106 129.406 361.454 129.55 361.816 129.55H373.573C373.936 129.551 374.284 129.407 374.542 129.15C374.799 128.894 374.944 128.546 374.945 128.183V116.43C374.944 116.066 374.799 115.718 374.542 115.46C374.285 115.203 373.937 115.058 373.573 115.057Z" fill="#04080B"/>
<path d="M373.573 135.087H361.817C361.453 135.088 361.105 135.233 360.849 135.491C360.593 135.748 360.449 136.096 360.449 136.459V148.208C360.449 148.388 360.484 148.566 360.552 148.732C360.621 148.899 360.721 149.05 360.848 149.177C360.975 149.305 361.126 149.406 361.292 149.475C361.458 149.544 361.637 149.58 361.817 149.58H373.573C373.937 149.58 374.286 149.435 374.543 149.178C374.801 148.921 374.945 148.572 374.945 148.208V136.459C374.944 136.096 374.799 135.747 374.542 135.49C374.285 135.233 373.937 135.088 373.573 135.087V135.087Z" fill="#E6E6E6"/>
<path d="M373.573 155.116H361.817C361.453 155.118 361.106 155.263 360.849 155.52C360.593 155.777 360.449 156.125 360.449 156.489V168.237C360.449 168.417 360.484 168.595 360.552 168.762C360.621 168.928 360.721 169.079 360.848 169.207C360.975 169.334 361.126 169.435 361.292 169.504C361.458 169.573 361.637 169.609 361.817 169.609H373.573C373.937 169.609 374.286 169.464 374.543 169.207C374.801 168.95 374.945 168.601 374.945 168.237V156.489C374.944 156.125 374.799 155.776 374.542 155.519C374.285 155.262 373.937 155.117 373.573 155.116V155.116Z" fill="white"/>
<path d="M373.573 175.146H361.817C361.637 175.146 361.458 175.182 361.292 175.251C361.126 175.32 360.975 175.421 360.848 175.548C360.721 175.676 360.621 175.827 360.552 175.993C360.484 176.16 360.449 176.338 360.449 176.518V188.267C360.449 188.446 360.484 188.625 360.552 188.791C360.621 188.957 360.721 189.109 360.848 189.236C360.975 189.364 361.126 189.465 361.292 189.534C361.458 189.603 361.637 189.639 361.817 189.639H373.573C373.937 189.639 374.286 189.494 374.543 189.237C374.801 188.979 374.945 188.63 374.945 188.267V176.518C374.945 176.154 374.801 175.805 374.543 175.548C374.286 175.291 373.937 175.146 373.573 175.146Z" fill="#04080B"/>
<path d="M398.258 95.0278H386.502C386.139 95.0291 385.791 95.1742 385.535 95.4314C385.278 95.6886 385.135 96.0369 385.135 96.4V108.154C385.135 108.516 385.279 108.864 385.535 109.12C385.792 109.377 386.139 109.521 386.502 109.521H398.258C398.622 109.521 398.97 109.377 399.227 109.121C399.485 108.865 399.63 108.517 399.631 108.154V96.4C399.63 96.0364 399.485 95.688 399.228 95.4309C398.971 95.1738 398.622 95.0289 398.258 95.0278Z" fill="#04080B"/>
<path d="M398.258 115.057H386.502C386.139 115.059 385.791 115.204 385.535 115.461C385.278 115.718 385.135 116.067 385.135 116.43V128.183C385.135 128.546 385.279 128.894 385.535 129.15C385.792 129.406 386.139 129.55 386.502 129.55H398.258C398.622 129.551 398.97 129.407 399.227 129.15C399.485 128.894 399.63 128.546 399.631 128.183V116.43C399.63 116.066 399.485 115.718 399.228 115.46C398.971 115.203 398.622 115.058 398.258 115.057V115.057Z" fill="#04080B"/>
<path d="M398.258 135.087H386.502C386.139 135.088 385.791 135.233 385.535 135.491C385.278 135.748 385.135 136.096 385.135 136.459V148.208C385.134 148.388 385.169 148.566 385.238 148.732C385.306 148.899 385.407 149.05 385.534 149.177C385.661 149.305 385.812 149.406 385.978 149.475C386.144 149.544 386.322 149.58 386.502 149.58H398.258C398.622 149.58 398.971 149.435 399.229 149.178C399.486 148.921 399.631 148.572 399.631 148.208V136.459C399.63 136.096 399.485 135.747 399.228 135.49C398.971 135.233 398.622 135.088 398.258 135.087Z" fill="#E6E6E6"/>
<path d="M398.258 155.116H386.502C386.139 155.118 385.791 155.263 385.535 155.52C385.279 155.777 385.135 156.125 385.135 156.489V168.237C385.134 168.417 385.169 168.595 385.238 168.762C385.306 168.928 385.407 169.079 385.534 169.207C385.661 169.334 385.812 169.435 385.978 169.504C386.144 169.573 386.322 169.609 386.502 169.609H398.258C398.622 169.609 398.971 169.464 399.229 169.207C399.486 168.95 399.631 168.601 399.631 168.237V156.489C399.63 156.125 399.485 155.776 399.228 155.519C398.971 155.262 398.622 155.117 398.258 155.116V155.116Z" fill="#04080B"/>
<path d="M398.258 175.146H386.502C386.322 175.146 386.144 175.182 385.978 175.251C385.812 175.32 385.661 175.421 385.534 175.548C385.407 175.676 385.306 175.827 385.238 175.993C385.169 176.16 385.134 176.338 385.135 176.518V188.267C385.134 188.446 385.169 188.625 385.238 188.791C385.306 188.957 385.407 189.109 385.534 189.236C385.661 189.364 385.812 189.465 385.978 189.534C386.144 189.603 386.322 189.639 386.502 189.639H398.258C398.622 189.639 398.971 189.494 399.229 189.237C399.486 188.979 399.631 188.63 399.631 188.267V176.518C399.631 176.154 399.486 175.805 399.229 175.548C398.971 175.291 398.622 175.146 398.258 175.146V175.146Z" fill="#04080B"/>
<path d="M422.942 95.0278H411.186C410.822 95.0291 410.475 95.1742 410.218 95.4314C409.962 95.6886 409.818 96.0369 409.818 96.4V108.154C409.818 108.516 409.962 108.864 410.219 109.12C410.475 109.377 410.823 109.521 411.186 109.521H422.942C423.305 109.521 423.654 109.377 423.911 109.121C424.168 108.865 424.313 108.517 424.315 108.154V96.4C424.313 96.0364 424.169 95.688 423.911 95.4309C423.654 95.1738 423.306 95.0289 422.942 95.0278V95.0278Z" fill="#E6E6E6"/>
<path d="M422.942 115.057H411.186C410.822 115.059 410.475 115.204 410.218 115.461C409.962 115.718 409.818 116.067 409.818 116.43V128.183C409.818 128.546 409.962 128.894 410.219 129.15C410.475 129.406 410.823 129.55 411.186 129.55H422.942C423.305 129.551 423.654 129.407 423.911 129.15C424.168 128.894 424.313 128.546 424.315 128.183V116.43C424.313 116.066 424.169 115.718 423.911 115.46C423.654 115.203 423.306 115.058 422.942 115.057V115.057Z" fill="#04080B"/>
<path d="M422.942 135.087H411.186C410.822 135.088 410.475 135.233 410.218 135.491C409.962 135.748 409.818 136.096 409.818 136.459V148.208C409.818 148.388 409.853 148.566 409.921 148.732C409.99 148.899 410.09 149.05 410.217 149.177C410.344 149.305 410.495 149.406 410.661 149.475C410.828 149.544 411.006 149.58 411.186 149.58H422.942C423.306 149.58 423.655 149.435 423.912 149.178C424.17 148.921 424.314 148.572 424.314 148.208V136.459C424.313 136.096 424.168 135.747 423.911 135.49C423.654 135.233 423.306 135.088 422.942 135.087V135.087Z" fill="#04080B"/>
<path d="M422.942 155.116H411.186C410.822 155.118 410.475 155.263 410.218 155.52C409.962 155.777 409.818 156.125 409.818 156.489V168.237C409.818 168.417 409.853 168.595 409.921 168.762C409.99 168.928 410.09 169.079 410.217 169.207C410.344 169.334 410.495 169.435 410.661 169.504C410.828 169.573 411.006 169.609 411.186 169.609H422.942C423.306 169.609 423.655 169.464 423.912 169.207C424.17 168.95 424.314 168.601 424.314 168.237V156.489C424.313 156.125 424.168 155.776 423.911 155.519C423.654 155.262 423.306 155.117 422.942 155.116V155.116Z" fill="#04080B"/>
<path d="M422.942 175.146H411.186C411.006 175.146 410.828 175.182 410.661 175.251C410.495 175.32 410.344 175.421 410.217 175.548C410.09 175.676 409.99 175.827 409.921 175.993C409.853 176.16 409.818 176.338 409.818 176.518V188.267C409.818 188.446 409.853 188.625 409.921 188.791C409.99 188.957 410.09 189.109 410.217 189.236C410.344 189.364 410.495 189.465 410.661 189.534C410.828 189.603 411.006 189.639 411.186 189.639H422.942C423.306 189.639 423.655 189.494 423.912 189.237C424.17 188.979 424.314 188.63 424.314 188.267V176.518C424.314 176.154 424.17 175.805 423.912 175.548C423.655 175.291 423.306 175.146 422.942 175.146V175.146Z" fill="#E6E6E6"/>
<path d="M447.628 95.0278H435.871C435.508 95.0291 435.16 95.1742 434.904 95.4314C434.648 95.6886 434.504 96.0369 434.504 96.4V108.154C434.504 108.516 434.648 108.864 434.904 109.12C435.161 109.377 435.509 109.521 435.871 109.521H447.628C447.991 109.521 448.339 109.377 448.596 109.121C448.854 108.865 448.999 108.517 449 108.154V96.4C448.999 96.0364 448.854 95.688 448.597 95.4309C448.34 95.1738 447.991 95.0289 447.628 95.0278V95.0278Z" fill="#E6E6E6"/>
<path d="M447.628 115.057H435.871C435.508 115.059 435.16 115.204 434.904 115.461C434.648 115.718 434.504 116.067 434.504 116.43V128.183C434.504 128.546 434.648 128.894 434.904 129.15C435.161 129.406 435.509 129.55 435.871 129.55H447.628C447.991 129.551 448.339 129.407 448.596 129.15C448.854 128.894 448.999 128.546 449 128.183V116.43C448.999 116.066 448.854 115.718 448.597 115.46C448.34 115.203 447.991 115.058 447.628 115.057V115.057Z" fill="#E6E6E6"/>
<path d="M447.628 135.087H435.871C435.508 135.088 435.16 135.233 434.904 135.491C434.648 135.748 434.504 136.096 434.504 136.459V148.208C434.503 148.388 434.538 148.566 434.607 148.732C434.675 148.899 434.776 149.05 434.903 149.177C435.03 149.305 435.181 149.406 435.347 149.475C435.513 149.544 435.691 149.58 435.871 149.58H447.628C447.992 149.58 448.341 149.435 448.598 149.178C448.855 148.921 449 148.572 449 148.208V136.459C448.999 136.096 448.854 135.747 448.597 135.49C448.34 135.233 447.991 135.088 447.628 135.087V135.087Z" fill="#04080B"/>
<path d="M447.628 155.116H435.871C435.508 155.118 435.16 155.263 434.904 155.52C434.648 155.777 434.504 156.125 434.504 156.489V168.237C434.503 168.417 434.538 168.595 434.607 168.762C434.675 168.928 434.776 169.079 434.903 169.207C435.03 169.334 435.181 169.435 435.347 169.504C435.513 169.573 435.691 169.609 435.871 169.609H447.628C447.992 169.609 448.341 169.464 448.598 169.207C448.855 168.95 449 168.601 449 168.237V156.489C448.999 156.125 448.854 155.776 448.597 155.519C448.34 155.262 447.991 155.117 447.628 155.116V155.116Z" fill="#E6E6E6"/>
<path d="M447.628 175.146H435.871C435.691 175.146 435.513 175.182 435.347 175.251C435.181 175.32 435.03 175.421 434.903 175.548C434.776 175.676 434.675 175.827 434.607 175.993C434.538 176.16 434.503 176.338 434.504 176.518V188.267C434.503 188.446 434.538 188.625 434.607 188.791C434.675 188.957 434.776 189.109 434.903 189.236C435.03 189.364 435.181 189.465 435.347 189.534C435.513 189.603 435.691 189.639 435.871 189.639H447.628C447.992 189.639 448.341 189.494 448.598 189.237C448.855 188.979 449 188.63 449 188.267V176.518C449 176.154 448.855 175.805 448.598 175.548C448.341 175.291 447.992 175.146 447.628 175.146V175.146Z" fill="#E6E6E6"/>
<path d="M177.425 348.366H177.098L177.377 348.329L177.425 348.366Z" fill="#2F2E41"/>
<path d="M149.298 129.337C169.217 129.337 185.365 113.192 185.365 93.2771C185.365 73.3621 169.217 57.2178 149.298 57.2178C129.378 57.2178 113.23 73.3621 113.23 93.2771C113.23 113.192 129.378 129.337 149.298 129.337Z" fill="#FFB6B6"/>
<path d="M180.882 66.8391C180.882 66.8391 190.316 48.8095 169.562 47.1704C169.562 47.1704 151.869 31.1245 133.836 44.2369C133.836 44.2369 123.999 44.2369 118.62 55.3657C118.62 55.3657 110.884 52.4322 109.184 60.2829C109.184 60.2829 103.523 76.6735 109.184 91.4251C114.845 106.177 116.725 107.816 116.725 107.816C116.725 107.816 107.423 76.8883 130.065 75.2491C152.707 73.61 178.044 59.4634 179.931 77.493C181.818 95.5226 184.658 99.965 184.658 99.965C184.658 99.965 202.58 74.215 180.882 66.8391Z" fill="#2F2E41"/>
<path d="M242.596 182.144L242.48 182.757L241.176 189.639L232.164 237.245L231.631 240.048L230.512 245.975L228.981 254.06L225.587 271.979L224.615 277.114L224.251 279.041L224.124 279.716L223.116 285.031L222.81 286.635L220.35 304.86L218.201 320.741L225.391 327.929L221.105 332.215L218.291 348.328L218.296 348.365H103.462C98.8166 345.357 94.2379 342.255 89.7262 339.06L90.6711 331.988C90.6711 331.988 93.9229 319.358 92.5556 317.849C91.1937 316.339 88.2057 313.642 88.2057 313.642L91.9697 304.86L92.4923 303.641L91.616 285.469L91.5949 285.031L91.3046 279.041L91.2676 278.27L91.2095 277.114L90.0957 254.06L90.0746 253.68L89.7368 246.693L89.42 240.048L89.2827 237.245L87.926 209.204L87.0075 190.161L86.2051 173.584L89.4305 172.491L123.929 160.769L138.219 142.196L167.961 142.418L182.521 142.529L206.815 165.055L212.342 167.693L212.384 167.715L216.349 169.609L226.4 174.407L237.026 179.484L242.48 182.086L242.596 182.144Z" fill="#CACACA"/>
<path d="M142.063 294.268C139.883 295.112 137.545 295.468 135.213 295.311C132.881 295.154 130.612 294.488 128.565 293.359C126.519 292.23 124.744 290.667 123.368 288.779C121.991 286.89 121.045 284.723 120.596 282.43L64.3438 274.451L83.8987 252.335L134.319 263.303C138.223 262.805 142.173 263.756 145.422 265.976C148.671 268.195 150.993 271.53 151.948 275.347C152.902 279.163 152.423 283.198 150.601 286.685C148.779 290.172 145.741 292.87 142.063 294.268V294.268Z" fill="#FFB6B6"/>
<path d="M116.981 254.06C115.939 252.74 114.464 251.829 112.816 251.49L89.7365 246.692L87.3662 246.202C85.9887 245.914 84.6874 245.339 83.5476 244.514C82.4077 243.689 81.4549 242.633 80.7515 241.415C80.022 240.135 79.5805 238.712 79.4582 237.245C79.3482 235.911 79.5079 234.568 79.928 233.297L87.9257 209.204L93.1149 193.571C93.7439 191.685 94.115 189.724 94.2183 187.739C94.5074 182.246 92.8076 176.833 89.4302 172.491C86.4609 168.675 82.3426 165.914 77.6836 164.618C73.0246 163.322 68.0721 163.558 63.5578 165.292C63.4258 165.339 63.2886 165.392 63.1566 165.445C59.9191 166.737 57.0266 168.765 54.7078 171.367C52.3889 173.97 50.7071 177.075 49.7954 180.439L44.1574 200.944L32.5278 243.214C31.3636 247.45 31.1284 251.886 31.8383 256.221C32.5482 260.555 34.1864 264.685 36.6408 268.328C39.0952 271.97 42.3079 275.04 46.0589 277.326C49.8099 279.612 54.0107 281.061 58.3738 281.574L91.6157 285.469L106.999 287.274C108.778 287.488 110.572 287.024 112.023 285.974C113.475 284.924 114.478 283.367 114.833 281.611C114.858 281.515 114.877 281.418 114.891 281.321L115.26 279.04L118.391 259.84L118.423 259.644C118.586 258.665 118.542 257.661 118.293 256.7C118.045 255.738 117.598 254.839 116.981 254.06Z" fill="#CACACA"/>
<path d="M177.893 294.883C180.17 295.412 182.535 295.435 184.821 294.951C187.108 294.466 189.26 293.487 191.127 292.081C192.994 290.675 194.53 288.877 195.627 286.813C196.724 284.75 197.354 282.471 197.475 280.137L252.04 264.307L229.561 245.169L181.191 263.136C177.257 263.193 173.48 264.692 170.576 267.348C167.673 270.003 165.844 273.632 165.438 277.545C165.031 281.458 166.074 285.385 168.37 288.58C170.665 291.776 174.054 294.019 177.893 294.883V294.883Z" fill="#FFB6B6"/>
<path d="M279.132 228.896L253.18 169.182C251.058 164.279 247.267 160.287 242.48 157.914C241 157.185 239.446 156.619 237.845 156.225C237.597 156.161 237.349 156.103 237.1 156.056C233.705 155.315 230.183 155.38 226.817 156.246C223.74 157.036 220.865 158.466 218.378 160.442C215.891 162.418 213.849 164.896 212.384 167.715C212.368 167.738 212.354 167.763 212.342 167.788C210.706 170.952 209.836 174.456 209.802 178.017C209.768 181.579 210.571 185.098 212.147 188.293L212.469 188.937L230.808 225.761C231.434 227.02 231.787 228.397 231.843 229.802C231.9 231.207 231.658 232.609 231.135 233.914C230.611 235.219 229.818 236.399 228.806 237.376C227.795 238.353 226.588 239.105 225.265 239.583L223.977 240.048L200.812 248.413C199.074 249.033 197.645 250.303 196.824 251.956C196.004 253.609 195.857 255.516 196.415 257.275L196.473 257.459L202.966 278.233C202.998 278.328 203.03 278.423 203.067 278.518C203.124 278.697 203.194 278.872 203.278 279.041C203.968 280.588 205.188 281.838 206.718 282.567C208.247 283.295 209.987 283.454 211.624 283.015L224.125 279.716L226.674 279.041L258.955 270.517C263.203 269.395 267.158 267.368 270.549 264.576C273.941 261.784 276.688 258.292 278.605 254.339C280.521 250.386 281.56 246.066 281.651 241.675C281.742 237.283 280.883 232.924 279.132 228.896L279.132 228.896Z" fill="#CACACA"/>
<path d="M23.7012 279.041C31.1818 288.163 39.2494 296.787 47.8527 304.86H286.448C288.747 304.863 290.95 305.778 292.575 307.404C294.2 309.03 295.114 311.233 295.116 313.531L295.459 373.979C310.138 367.237 323.883 358.628 336.356 348.365C339.819 345.521 343.175 342.553 346.423 339.462C348.55 337.445 350.627 335.38 352.652 333.265C367.837 317.45 380.133 299.098 388.982 279.041H23.7012Z" fill="#3F3D56"/>
<path d="M352.653 333.265C350.632 335.382 348.555 337.447 346.424 339.462H295.635V333.265H352.653Z" fill="white"/>
<path d="M242.121 135.087C241.87 134.624 241.499 134.237 241.046 133.968C240.594 133.698 240.077 133.556 239.55 133.556H66.4832C65.7072 133.558 64.9637 133.868 64.4156 134.417C63.8674 134.966 63.5592 135.71 63.5586 136.485V240.048H242.48V136.485C242.483 135.996 242.359 135.514 242.121 135.087V135.087Z" fill="#3F3D56"/>
<path d="M63.4004 237.244V250.024C63.4004 250.553 63.5048 251.078 63.7075 251.567C63.9103 252.057 64.2076 252.502 64.5823 252.876C64.957 253.251 65.4018 253.548 65.8914 253.751C66.3809 253.954 66.9057 254.058 67.4356 254.058H133.474V279.279H132.597C132.528 279.279 132.46 279.293 132.396 279.319C132.333 279.345 132.275 279.384 132.226 279.433C132.178 279.481 132.139 279.539 132.113 279.603C132.086 279.666 132.073 279.734 132.073 279.803V281.557C132.073 281.626 132.086 281.694 132.113 281.758C132.139 281.822 132.178 281.879 132.226 281.928C132.275 281.977 132.333 282.015 132.396 282.042C132.46 282.068 132.528 282.081 132.597 282.081H173.593C173.662 282.081 173.73 282.068 173.794 282.042C173.857 282.015 173.915 281.977 173.964 281.928C174.012 281.879 174.051 281.822 174.077 281.758C174.104 281.694 174.117 281.626 174.117 281.557V279.803C174.117 279.734 174.104 279.666 174.077 279.603C174.051 279.539 174.012 279.481 173.964 279.433C173.915 279.384 173.857 279.345 173.794 279.319C173.73 279.293 173.662 279.279 173.593 279.279H172.716V254.058H238.754C239.284 254.058 239.809 253.954 240.299 253.751C240.788 253.548 241.233 253.251 241.608 252.876C241.982 252.502 242.28 252.057 242.482 251.567C242.685 251.078 242.79 250.553 242.79 250.024V237.244H63.4004Z" fill="#3F3D56"/>
<path d="M150.929 200.564C160.056 200.564 167.456 193.167 167.456 184.041C167.456 174.916 160.056 167.518 150.929 167.518C141.802 167.518 134.402 174.916 134.402 184.041C134.402 193.167 141.802 200.564 150.929 200.564Z" fill="#04080B"/>
<path d="M193.036 91.3068H190.397C190.397 71.3565 170.648 58.2832 150.725 58.2727C147.827 58.2642 144.936 58.5453 142.094 59.1118C138.895 59.7505 135.574 60.5158 132.312 61.5133C119.447 65.4558 107.516 73.0771 107.516 91.3068C107.514 94.8472 107.964 98.3733 108.857 101.799L106.302 102.464C105.355 98.8208 104.876 95.0714 104.877 91.3068C104.877 75.3782 111.418 64.4372 122.715 57.9138C128.654 54.4831 135.902 52.2717 144.206 51.195C147.661 50.7354 151.155 50.6293 154.632 50.8784C177.543 52.525 193.036 70.0898 193.036 91.3068Z" fill="#04080B"/>
<path d="M197.433 92.7689L196.393 85.0843C196.137 83.1436 195.202 81.3563 193.754 80.0387C192.824 79.1797 191.712 78.5432 190.5 78.1775C189.288 77.8117 188.009 77.7263 186.759 77.9275L185.107 78.1544C184.655 78.2139 184.219 78.3626 183.825 78.5918C183.431 78.8211 183.086 79.1263 182.811 79.4897C182.533 79.852 182.33 80.2657 182.213 80.7068C182.096 81.148 182.068 81.6079 182.13 82.0601L184.531 99.762C184.63 100.484 184.954 101.156 185.456 101.683C185.958 102.211 186.613 102.567 187.329 102.702C187.541 102.744 187.757 102.766 187.973 102.765C188.129 102.765 188.284 102.755 188.438 102.733L190.286 102.485C191.412 102.336 192.496 101.958 193.471 101.374C194.446 100.791 195.291 100.014 195.955 99.0918C196.098 98.8912 196.235 98.6854 196.362 98.4742C197.351 96.7473 197.729 94.737 197.433 92.7689Z" fill="#04080B"/>
<path d="M184.041 78.4766C183.556 78.712 183.134 79.0593 182.811 79.4899C182.533 79.8522 182.33 80.2658 182.213 80.707C182.096 81.1481 182.068 81.6081 182.13 82.0602L184.531 99.7622C184.63 100.484 184.954 101.156 185.456 101.683C185.958 102.211 186.614 102.567 187.329 102.702L184.041 78.4766Z" fill="white"/>
<path d="M197.433 92.7688L196.393 85.0842C196.137 83.1436 195.202 81.3562 193.754 80.0386L196.145 97.6508C196.181 97.9335 196.254 98.2103 196.362 98.4742C197.351 96.7472 197.729 94.737 197.433 92.7688V92.7688Z" fill="#3F3D56"/>
<path d="M189.215 98.3057C189.938 98.2077 190.301 96.4893 190.026 94.4674C189.752 92.4455 188.944 90.8858 188.222 90.9838C187.5 91.0817 187.136 92.8002 187.411 94.8221C187.685 96.844 188.493 98.4037 189.215 98.3057Z" fill="#3F3D56"/>
<path d="M187.631 88.8055C188.354 88.7075 188.717 86.989 188.442 84.9671C188.168 82.9452 187.36 81.3856 186.638 81.4835C185.916 81.5815 185.552 83.3 185.827 85.3219C186.101 87.3438 186.909 88.9034 187.631 88.8055Z" fill="#3F3D56"/>
<path d="M197.661 92.5C198.383 92.4021 198.746 90.6836 198.472 88.6617C198.197 86.6398 197.389 85.0801 196.667 85.1781C195.945 85.2761 195.582 86.9945 195.856 89.0164C196.13 91.0383 196.938 92.598 197.661 92.5Z" fill="#3F3D56"/>
<path d="M150.725 58.2727C147.827 58.2642 144.936 58.5453 142.094 59.1118C138.895 59.7505 135.575 60.5158 132.312 61.5133C127.218 61.2652 123.47 59.9457 122.715 57.9138C128.654 54.4831 135.902 52.2717 144.206 51.195C147.661 50.7354 151.155 50.6293 154.632 50.8784C155 51.0941 155.318 51.3853 155.566 51.7328C155.813 52.0803 155.984 52.4762 156.068 52.8945C156.316 54.7312 154.22 56.684 150.725 58.2727Z" fill="#3F3D56"/>
<path d="M117.023 109.621L112.958 92.7266C112.813 92.1171 112.491 91.564 112.033 91.1367C111.575 90.7095 111 90.4271 110.382 90.3252C110.207 90.298 110.031 90.2839 109.854 90.283C109.605 90.2838 109.357 90.314 109.115 90.3727L107.542 90.7527C105.516 91.2424 103.768 92.5156 102.68 94.2927C101.593 96.0698 101.254 98.2057 101.74 100.232L103.561 107.811C103.977 109.595 104.968 111.193 106.38 112.36C106.609 112.545 106.849 112.716 107.098 112.872C107.983 113.427 108.97 113.798 110.001 113.965C111.032 114.132 112.086 114.091 113.101 113.843L114.668 113.463C115.083 113.367 115.473 113.185 115.814 112.93C116.321 112.561 116.707 112.049 116.922 111.46C117.137 110.87 117.172 110.23 117.023 109.621Z" fill="#04080B"/>
<path d="M108.502 106.478C109.211 106.307 109.399 104.561 108.921 102.577C108.444 100.593 107.482 99.1231 106.773 99.2936C106.065 99.4641 105.877 101.21 106.355 103.194C106.832 105.178 107.794 106.648 108.502 106.478Z" fill="#3F3D56"/>
<path d="M103.223 108.061C103.932 107.891 104.119 106.144 103.642 104.16C103.164 102.177 102.203 100.707 101.494 100.877C100.785 101.048 100.598 102.794 101.076 104.778C101.553 106.762 102.515 108.232 103.223 108.061Z" fill="#3F3D56"/>
<path d="M117.283 109.558L113.218 92.6634C113.06 92.0039 112.711 91.4058 112.214 90.9439C111.717 90.482 111.095 90.1768 110.426 90.0667L115.974 113.141C116.522 112.74 116.939 112.186 117.172 111.548C117.405 110.91 117.444 110.218 117.283 109.558V109.558Z" fill="white"/>
<path d="M102.661 96.8856C102.549 96.4158 102.338 95.9751 102.043 95.5925C101.472 97.072 101.367 98.6909 101.742 100.232L103.564 107.811C103.98 109.595 104.97 111.193 106.383 112.36L102.661 96.8856Z" fill="#3F3D56"/>
</svg>
