<svg width="125" height="24" viewBox="0 0 125 24" fill="none" xmlns="http://www.w3.org/2000/svg">
<path d="M29.4278 9.8342V3.21172L32.2943 1.5561H38.0519L40.9183 3.21172V5.75692H38.4472V3.78006H31.8989V9.01874H38.0519L40.9183 10.6744V17.4451L38.0519 19.1007H32.0472L29.1807 17.4451V14.8999H31.6518V16.8768H38.4472V11.4898H32.2943L29.4278 9.8342ZM54.8683 16.8273V18.9772H47.974L45.1076 17.3216V8.15387L47.974 6.49825H52.0019L54.8683 8.15387V13.6397H47.5045V16.8273H54.8683ZM47.5045 8.64808V11.4898H52.4714V8.64808H47.5045ZM57.8259 8.77163V6.6218H60.0993V4.5461L62.4962 3.16229V6.6218H65.4615V8.77163H62.4962V16.8273H65.4615V18.9772H62.9657L60.0993 17.3216V8.77163H57.8259ZM68.9254 17.4451V6.6218H71.3224V16.9509H77.0306V6.6218H79.4275V19.1007H77.6236L77.0306 18.0876L75.2761 19.1007H71.7919L68.9254 17.4451ZM91.263 19.1007H87.5317L85.7772 18.0876V23.9193H83.3803V6.49825H85.1841L85.7772 7.51139L87.5317 6.49825H91.263L94.1294 8.15387V17.4451L91.263 19.1007ZM85.7772 8.64808V16.9509H91.7325V8.64808H85.7772ZM97.088 8.77163V6.6218H99.3614V2.59395L102.228 0.938327H104.724V3.08816H101.758V6.6218H104.724V8.77163H101.758V18.9772H99.3614V8.77163H97.088ZM108.817 23.9193L110.967 18.4088L106.198 6.6218H108.595L112.104 15.4188H112.153L115.638 6.6218H118.035L111.165 23.9193H108.817Z" fill="#FF8888"/>
<g clip-path="url(#clip0)">
<path d="M1.53759 3.21257L2.79992 1.9619H18.8988L20.1611 3.21257V12.6805L18.8988 13.9312H2.79992L1.53759 12.6805V3.21257Z" stroke="#FF8888" stroke-width="3.08884" stroke-linecap="round" stroke-linejoin="round"/>
<path d="M6.50647 19.7772H15.1914" stroke="#FF8888" stroke-width="3.08884" stroke-linecap="square" stroke-linejoin="round"/>
<path d="M10.8489 15.475V19.7773" stroke="#FF8888" stroke-width="3.08884" stroke-linecap="square" stroke-linejoin="round"/>
</g>
<defs>
<clipPath id="clip0">
<rect width="21.6942" height="20.1446" fill="white" transform="translate(0 0.427612)"/>
</clipPath>
</defs>
</svg>
